<?xml version="1.0" standalone="no"?><svg xmlns="http://www.w3.org/2000/svg" viewBox="0 0 1440 320"><path fill="#c4aed9" fill-opacity="1" d="M0,128L21.8,117.3C43.6,107,87,85,131,112C174.5,139,218,213,262,202.7C305.5,192,349,96,393,96C436.4,96,480,192,524,202.7C567.3,213,611,139,655,96C698.2,53,742,43,785,53.3C829.1,64,873,96,916,117.3C960,139,1004,149,1047,154.7C1090.9,160,1135,160,1178,165.3C1221.8,171,1265,181,1309,160C1352.7,139,1396,85,1418,58.7L1440,32L1440,320L1418.2,320C1396.4,320,1353,320,1309,320C1265.5,320,1222,320,1178,320C1134.5,320,1091,320,1047,320C1003.6,320,960,320,916,320C872.7,320,829,320,785,320C741.8,320,698,320,655,320C610.9,320,567,320,524,320C480,320,436,320,393,320C349.1,320,305,320,262,320C218.2,320,175,320,131,320C87.3,320,44,320,22,320L0,320Z"></path></svg>